<svg width="32" height="32" viewBox="0 0 32 32" fill="none" xmlns="http://www.w3.org/2000/svg">
<rect width="32" height="32" rx="5" fill="#FFA713"/>
<path opacity="0.16" d="M10.1667 19.3333L9.33334 22.6667L12.6667 21.8333L21 13.5L18.5 11L10.1667 19.3333Z" fill="#FFF3DE"/>
<path d="M18.5 11.0001L21 13.5001M16.8333 22.6667H23.5M10.1667 19.3334L9.33334 22.6667L12.6667 21.8334L22.3217 12.1784C22.6341 11.8659 22.8097 11.442 22.8097 11.0001C22.8097 10.5581 22.6341 10.1343 22.3217 9.82174L22.1783 9.67841C21.8658 9.36596 21.442 9.19043 21 9.19043C20.5581 9.19043 20.1342 9.36596 19.8217 9.67841L10.1667 19.3334Z" stroke="#FFF3DE" stroke-width="1.5" stroke-linecap="round" stroke-linejoin="round"/>
</svg>
