<svg width="32" height="32" viewBox="0 0 32 32" fill="none" xmlns="http://www.w3.org/2000/svg">
<rect width="32" height="32" rx="8" fill="#0059FF"/>
<path d="M16.0003 18C17.1048 18 18.0003 17.1046 18.0003 16C18.0003 14.8954 17.1048 14 16.0003 14C14.8957 14 14.0003 14.8954 14.0003 16C14.0003 17.1046 14.8957 18 16.0003 18Z" fill="white"/>
<path fill-rule="evenodd" clip-rule="evenodd" d="M6.45801 16C7.73226 11.9429 11.5226 9 16.0002 9C20.4778 9 24.2681 11.9429 25.5424 16C24.2682 20.0571 20.4778 23 16.0002 23C11.5226 23 7.73228 20.0571 6.45801 16ZM20.0003 16C20.0003 18.2091 18.2094 20 16.0003 20C13.7911 20 12.0003 18.2091 12.0003 16C12.0003 13.7909 13.7911 12 16.0003 12C18.2094 12 20.0003 13.7909 20.0003 16Z" fill="white"/>
</svg>
