<svg width="82" height="82" viewBox="0 0 82 82" fill="none" xmlns="http://www.w3.org/2000/svg">
<path d="M68.438 26.3745L50.5005 8.43703C50.2623 8.19914 49.9796 8.01051 49.6686 7.8819C49.3575 7.75329 49.0241 7.68724 48.6875 7.6875H17.9375C16.5783 7.6875 15.2747 8.22745 14.3136 9.18858C13.3525 10.1497 12.8125 11.4533 12.8125 12.8125V69.1875C12.8125 70.5467 13.3525 71.8503 14.3136 72.8114C15.2747 73.7725 16.5783 74.3125 17.9375 74.3125H64.0625C65.4217 74.3125 66.7253 73.7725 67.6864 72.8114C68.6475 71.8503 69.1875 70.5467 69.1875 69.1875V28.1875C69.1878 27.8509 69.1217 27.5175 68.9931 27.2064C68.8645 26.8954 68.6759 26.6127 68.438 26.3745ZM51.25 16.4352L60.4398 25.625H51.25V16.4352ZM64.0625 69.1875H17.9375V12.8125H46.125V28.1875C46.125 28.8671 46.395 29.5189 46.8755 29.9995C47.3561 30.48 48.0079 30.75 48.6875 30.75H64.0625V69.1875Z" fill="white"/>
</svg>
